<svg xmlns="http://www.w3.org/2000/svg" xmlns:xlink="http://www.w3.org/1999/xlink" id="图层_1" x="0" y="0" version="1.1" viewBox="0 0 21 23" xml:space="preserve" style="enable-background:new 0 0 21 23"><style type="text/css">.st0{fill:#484cac}</style><path d="M9.6,22c-1.1,0-2-0.9-2-2l0-1.4c-4,0.9-4.8-1.7-4.8-1.7c-0.6-1.6-1.6-2.1-1.6-2.1c-1.3-0.9,0.1-0.9,0.1-0.9	c1.4,0.1,2.2,1.5,2.2,1.5c1.3,2.2,3.3,1.6,4.2,1.2c0.1-0.9,0.5-1.6,0.9-1.9C5.4,14.3,2,13.1,2,7.6c0-1.6,0.6-2.8,1.5-3.8	C3.4,3.4,2.9,2,3.7,0c0,0,1.2-0.4,3.9,1.5C8.7,1.2,9.9,1,11.2,1c1.2,0,2.4,0.2,3.6,0.5C17.5-0.4,18.6,0,18.6,0	c0.8,2,0.3,3.4,0.1,3.8c0.9,1,1.5,2.3,1.5,3.8c0,5.5-3.3,6.7-6.5,7c0.5,0.4,1,1.3,1,2.6c0,1.9,0,2.7,0,2.7c0,1.1-0.9,2-2,2H9.6z M9.6,22" class="st0"/></svg>