<svg xmlns="http://www.w3.org/2000/svg" xmlns:xlink="http://www.w3.org/1999/xlink" id="图层_1" x="0" y="0" version="1.1" viewBox="0 0 25 22" xml:space="preserve" style="enable-background:new 0 0 25 22"><style type="text/css">.st0{fill:#484cac}</style><path d="M25.4,2.3c0,0-2.2,1.2-3,1.2c-1.9-3-9.3-1.7-8,4.1C7.9,7.7,4.5,2.9,4.5,2.9S2.3,6.3,5.9,9.2	c-0.7,0.1-2-0.4-2-0.4s-0.5,3,3.6,4.5c-0.4,0.5-2.1,0.2-2.1,0.2s0.5,2.6,4.2,3.3c-2.6,2.4-7.1,1.7-6.8,1.9	c3.8,3.5,20.5,4.2,20.7-11.8C24.5,6.6,26,4.3,26,4.3S23.6,5,23.5,4.9C25.3,3.8,25.4,2.3,25.4,2.3" class="st0"/></svg>